<svg xmlns="http://www.w3.org/2000/svg" viewBox="0 0 64 64" width="64" height="64">
  <defs>
    <polygon id="s7" points="0,-1 0.195,-0.405 0.782,-0.623 0.439,-0.1 0.975,0.223 0.352,0.281 0.434,0.901 0,0.45 -0.434,0.901 -0.352,0.281 -0.975,0.223 -0.439,-0.1 -0.782,-0.623 -0.195,-0.405" fill="#fff"/>
    <polygon id="s5" points="0,-1 0.225,-0.309 0.951,-0.309 0.363,0.118 0.588,0.809 0,0.382 -0.588,0.809 -0.363,0.118 -0.951,-0.309 -0.225,-0.309" fill="#fff"/>
    <clipPath id="shield">
      <path d="M6 4 H58 V32 C58 50 46 58 32 62 C18 58 6 50 6 32 Z"/>
    </clipPath>
  </defs>

  <g clip-path="url(#shield)">
    <rect width="64" height="64" fill="#12354B"/>

    <rect x="6" y="4" width="26" height="22" fill="#012169"/>

    <g stroke="#fff" stroke-width="3.5" fill="none">
      <line x1="6" y1="4" x2="32" y2="26"/>
      <line x1="32" y1="4" x2="6" y2="26"/>
    </g>
    <g stroke="#C8102E" stroke-width="1.4" fill="none">
      <line x1="6" y1="4" x2="32" y2="26"/>
      <line x1="32" y1="4" x2="6" y2="26"/>
    </g>

    <g stroke="#fff" stroke-width="5" fill="none">
      <line x1="19" y1="4" x2="19" y2="26"/>
      <line x1="6" y1="15" x2="32" y2="15"/>
    </g>
    <g stroke="#C8102E" stroke-width="3" fill="none">
      <line x1="19" y1="4" x2="19" y2="26"/>
      <line x1="6" y1="15" x2="32" y2="15"/>
    </g>

    <use href="#s7" transform="translate(19 40) scale(5)"/>

    <use href="#s7" transform="translate(46 14) scale(3)"/>
    <use href="#s7" transform="translate(52 24) scale(2.5)"/>
    <use href="#s5" transform="translate(50 33) scale(1.4)"/>
    <use href="#s7" transform="translate(40 28) scale(2.8)"/>
    <use href="#s7" transform="translate(46 44) scale(3)"/>
  </g>

  <path d="M6 4 H58 V32 C58 50 46 58 32 62 C18 58 6 50 6 32 Z" fill="none" stroke="#fff" stroke-width="2"/>
</svg>
